<?xml version="1.0" encoding="utf-8"?>
<svg version="1.1" xmlns:xlink="http://www.w3.org/1999/xlink" width="21px" height="10px" preserveAspectRatio="xMinYMid meet" viewBox="45 6999  21 8" xmlns="http://www.w3.org/2000/svg">
  <path d="M 402.5 2254  L 402.5 2235  A 5 5 0 0 0 397 2230.5 L 83 2230.5  A 3 3 0 0 0 80 2227.5 A 3 3 0 0 0 77 2230.5 L 73 2230.5  A 3 3 0 0 0 70 2227.5 A 3 3 0 0 0 67 2230.5 L 55 2230.5  A 5 5 0 0 0 50.5 2235.5 L 50.5 6998  A 5 5 0 0 0 55.5 7003.5 L 61 7003.5  " stroke-width="1" stroke="#ff0000" fill="none" stroke-opacity="0.298039215686275" />
  <path d="M 60 6998  L 60 7009  L 61 7009  L 61 6998  L 60 6998  Z " fill-rule="nonzero" fill="#ff0000" stroke="none" fill-opacity="0.298039215686275" />
</svg>