<?xml version="1.0" encoding="utf-8"?>
<svg version="1.1" xmlns:xlink="http://www.w3.org/1999/xlink" width="18px" height="18px" preserveAspectRatio="xMinYMid meet" viewBox="579 5628  18 16" xmlns="http://www.w3.org/2000/svg">
  <path d="M 402.5 1698  L 402.5 1685  A 5 5 0 0 1 407 1680.5 L 557 1680.5  A 3 3 0 0 1 560 1677.5 A 3 3 0 0 1 563 1680.5 L 565 1680.5  A 5 5 0 0 1 570.5 1685 L 570.5 3794  A 3 3 0 0 1 573.5 3797 A 3 3 0 0 1 570.5 3800 L 570.5 5632  A 5 5 0 0 0 575.5 5637.5 L 588 5637.5  " stroke-width="1" stroke="#ff0000" fill="none" stroke-opacity="0.298039215686275" />
  <path d="M 587 5632  L 587 5643  L 588 5643  L 588 5632  L 587 5632  Z " fill-rule="nonzero" fill="#ff0000" stroke="none" fill-opacity="0.298039215686275" />
</svg>