<?xml version="1.0" encoding="utf-8"?>
<svg version="1.1" xmlns:xlink="http://www.w3.org/1999/xlink" width="10px" height="24px" preserveAspectRatio="xMidYMin meet" viewBox="398 2025  8 24" xmlns="http://www.w3.org/2000/svg">
  <path d="M 402.5 2049  L 402.5 2035  A 5 5 0 0 0 397 2030.5 L 83 2030.5  A 3 3 0 0 0 80 2027.5 A 3 3 0 0 0 77 2030.5 L 73 2030.5  A 3 3 0 0 0 70 2027.5 A 3 3 0 0 0 67 2030.5 L 55 2030.5  A 5 5 0 0 0 50.5 2035.5 L 50.5 6428  A 5 5 0 0 0 55.5 6433.5 L 65 6433.5  " stroke-width="1" stroke="#ff0000" fill="none" stroke-opacity="0.298039215686275" />
  <path d="M 64 6428  L 64 6439  L 65 6439  L 65 6428  L 64 6428  Z " fill-rule="nonzero" fill="#ff0000" stroke="none" fill-opacity="0.298039215686275" />
</svg>