<?xml version="1.0" encoding="utf-8"?>
<svg version="1.1" xmlns:xlink="http://www.w3.org/1999/xlink" width="10px" height="23px" preserveAspectRatio="xMidYMin meet" viewBox="398 1165  8 23" xmlns="http://www.w3.org/2000/svg">
  <path d="M 402.5 1188  L 402.5 1175  A 5 5 0 0 1 407 1170.5 L 557 1170.5  A 3 3 0 0 1 560 1167.5 A 3 3 0 0 1 563 1170.5 L 565 1170.5  A 5 5 0 0 1 570.5 1175 L 570.5 3794  A 3 3 0 0 1 573.5 3797 A 3 3 0 0 1 570.5 3800 L 570.5 4178  A 5 5 0 0 0 575.5 4183.5 L 586 4183.5  " stroke-width="1" stroke="#ff0000" fill="none" stroke-opacity="0.298039215686275" />
  <path d="M 585 4178  L 585 4189  L 586 4189  L 586 4178  L 585 4178  Z " fill-rule="nonzero" fill="#ff0000" stroke="none" fill-opacity="0.298039215686275" />
</svg>