<?xml version="1.0" encoding="utf-8"?>
<svg version="1.1" xmlns:xlink="http://www.w3.org/1999/xlink" width="10px" height="25px" preserveAspectRatio="xMidYMin meet" viewBox="398 2525  8 25" xmlns="http://www.w3.org/2000/svg">
  <path d="M 402.5 2550  L 402.5 2535  A 5 5 0 0 0 397 2530.5 L 83 2530.5  A 3 3 0 0 0 80 2527.5 A 3 3 0 0 0 77 2530.5 L 73 2530.5  A 5 5 0 0 0 68.5 2535 L 68.5 4511  A 3 3 0 0 1 71.5 4514 A 3 3 0 0 1 68.5 4517 L 68.5 4822  A 3 3 0 0 1 71.5 4825 A 3 3 0 0 1 68.5 4828 L 68.5 7630  " stroke-width="1" stroke="#ff0000" fill="none" stroke-opacity="0.298039215686275" />
  <path d="M 74 7629  L 63 7629  L 63 7630  L 74 7630  L 74 7629  Z " fill-rule="nonzero" fill="#ff0000" stroke="none" fill-opacity="0.298039215686275" />
</svg>