<?xml version="1.0" encoding="utf-8"?>
<svg version="1.1" xmlns:xlink="http://www.w3.org/1999/xlink" width="10px" height="4729px" preserveAspectRatio="xMidYMin meet" viewBox="606 2275  8 4729" xmlns="http://www.w3.org/2000/svg">
  <path d="M 402.5 2301  L 402.5 2285  A 5 5 0 0 1 407 2280.5 L 557 2280.5  A 3 3 0 0 1 560 2277.5 A 3 3 0 0 1 563 2280.5 L 567 2280.5  A 3 3 0 0 1 570 2277.5 A 3 3 0 0 1 573 2280.5 L 574 2280.5  A 4.5 4.5 0 0 1 578.5 2276 A 4.5 4.5 0 0 1 583 2280.5 L 587 2280.5  A 3 3 0 0 1 590 2277.5 A 3 3 0 0 1 593 2280.5 L 597 2280.5  A 3 3 0 0 1 600 2277.5 A 3 3 0 0 1 603 2280.5 L 605 2280.5  A 5 5 0 0 1 610.5 2285.5 L 610.5 6994  A 5 5 0 0 0 615.5 6999.5 L 621 6999.5  " stroke-width="1" stroke="#ff0000" fill="none" stroke-opacity="0.298039215686275" />
  <path d="M 620 6994  L 620 7005  L 621 7005  L 621 6994  L 620 6994  Z " fill-rule="nonzero" fill="#ff0000" stroke="none" fill-opacity="0.298039215686275" />
</svg>