<?xml version="1.0" encoding="utf-8"?>
<svg version="1.1" xmlns:xlink="http://www.w3.org/1999/xlink" width="18px" height="18px" preserveAspectRatio="xMinYMid meet" viewBox="595 6679  18 16" xmlns="http://www.w3.org/2000/svg">
  <path d="M 402.5 2207  L 402.5 2185  A 5 5 0 0 1 407 2180.5 L 557 2180.5  A 3 3 0 0 1 560 2177.5 A 3 3 0 0 1 563 2180.5 L 567 2180.5  A 3 3 0 0 1 570 2177.5 A 3 3 0 0 1 573 2180.5 L 574 2180.5  A 4.5 4.5 0 0 1 578.5 2176 A 4.5 4.5 0 0 1 583 2180.5 L 585 2180.5  A 5 5 0 0 1 590.5 2185 L 590.5 5238  A 3 3 0 0 1 593.5 5241 A 3 3 0 0 1 590.5 5244 L 590.5 6369  A 3 3 0 0 1 593.5 6372 A 3 3 0 0 1 590.5 6375 L 590.5 6683  A 5 5 0 0 0 595.5 6688.5 L 604 6688.5  " stroke-width="1" stroke="#ff0000" fill="none" stroke-opacity="0.298039215686275" />
  <path d="M 603 6683  L 603 6694  L 604 6694  L 604 6683  L 603 6683  Z " fill-rule="nonzero" fill="#ff0000" stroke="none" fill-opacity="0.298039215686275" />
</svg>