<?xml version="1.0" encoding="utf-8"?>
<svg version="1.1" xmlns:xlink="http://www.w3.org/1999/xlink" width="10px" height="5px" preserveAspectRatio="xMinYMid meet" viewBox="592 5242  10 3" xmlns="http://www.w3.org/2000/svg">
  <path d="M 402.5 1599  L 402.5 1585  A 5 5 0 0 1 407 1580.5 L 557 1580.5  A 3 3 0 0 1 560 1577.5 A 3 3 0 0 1 563 1580.5 L 567 1580.5  A 3 3 0 0 1 570 1577.5 A 3 3 0 0 1 573 1580.5 L 575 1580.5  A 5 5 0 0 1 580.5 1585 L 580.5 2995  A 3 3 0 0 1 583.5 2998 A 3 3 0 0 1 580.5 3001 L 580.5 4180  A 3 3 0 0 1 583.5 4183 A 3 3 0 0 1 580.5 4186 L 580.5 5236  A 5 5 0 0 0 585.5 5241.5 L 597 5241.5  " stroke-width="1" stroke="#ff0000" fill="none" stroke-opacity="0.298039215686275" />
  <path d="M 596 5236  L 596 5247  L 597 5247  L 597 5236  L 596 5236  Z " fill-rule="nonzero" fill="#ff0000" stroke="none" fill-opacity="0.298039215686275" />
</svg>