<?xml version="1.0" encoding="utf-8"?>
<svg version="1.1" xmlns:xlink="http://www.w3.org/1999/xlink" width="18px" height="18px" preserveAspectRatio="xMinYMid meet" viewBox="58 6363  18 16" xmlns="http://www.w3.org/2000/svg">
  <path d="M 402.5 2000  L 402.5 1985  A 5 5 0 0 0 397 1980.5 L 83 1980.5  A 3 3 0 0 0 80 1977.5 A 3 3 0 0 0 77 1980.5 L 73 1980.5  A 3 3 0 0 0 70 1977.5 A 3 3 0 0 0 67 1980.5 L 55 1980.5  A 5 5 0 0 0 50.5 1985.5 L 50.5 6367  A 5 5 0 0 0 55.5 6372.5 L 67 6372.5  " stroke-width="1" stroke="#ff0000" fill="none" stroke-opacity="0.298039215686275" />
  <path d="M 66 6367  L 66 6378  L 67 6378  L 67 6367  L 66 6367  Z " fill-rule="nonzero" fill="#ff0000" stroke="none" fill-opacity="0.298039215686275" />
</svg>