<?xml version="1.0" encoding="utf-8"?>
<svg version="1.1" xmlns:xlink="http://www.w3.org/1999/xlink" width="10px" height="5299px" preserveAspectRatio="xMidYMin meet" viewBox="46 2765  8 5299" xmlns="http://www.w3.org/2000/svg">
  <path d="M 402.5 2797  L 402.5 2775  A 5 5 0 0 0 397 2770.5 L 83 2770.5  A 3 3 0 0 0 80 2767.5 A 3 3 0 0 0 77 2770.5 L 73 2770.5  A 4 4 0 0 0 69 2766.5 A 4 4 0 0 0 65 2770.5 L 55 2770.5  A 5 5 0 0 0 50.5 2775.5 L 50.5 8054  A 5 5 0 0 0 55.5 8059.5 L 68 8059.5  " stroke-width="1" stroke="#ff0000" fill="none" stroke-opacity="0.298039215686275" />
  <path d="M 67 8054  L 67 8065  L 68 8065  L 68 8054  L 67 8054  Z " fill-rule="nonzero" fill="#ff0000" stroke="none" fill-opacity="0.298039215686275" />
</svg>