<?xml version="1.0" encoding="utf-8"?>
<svg version="1.1" xmlns:xlink="http://www.w3.org/1999/xlink" width="10px" height="4568px" preserveAspectRatio="xMidYMin meet" viewBox="46 2125  8 4568" xmlns="http://www.w3.org/2000/svg">
  <path d="M 402.5 2151  L 402.5 2135  A 5 5 0 0 0 397 2130.5 L 83 2130.5  A 3 3 0 0 0 80 2127.5 A 3 3 0 0 0 77 2130.5 L 73 2130.5  A 3 3 0 0 0 70 2127.5 A 3 3 0 0 0 67 2130.5 L 55 2130.5  A 5 5 0 0 0 50.5 2135.5 L 50.5 6683  A 5 5 0 0 0 55.5 6688.5 L 67 6688.5  " stroke-width="1" stroke="#ff0000" fill="none" stroke-opacity="0.298039215686275" />
  <path d="M 66 6683  L 66 6694  L 67 6694  L 67 6683  L 66 6683  Z " fill-rule="nonzero" fill="#ff0000" stroke="none" fill-opacity="0.298039215686275" />
</svg>