<?xml version="1.0" encoding="utf-8"?>
<svg version="1.1" xmlns:xlink="http://www.w3.org/1999/xlink" width="10px" height="3394px" preserveAspectRatio="xMidYMin meet" viewBox="596 1465  8 3394" xmlns="http://www.w3.org/2000/svg">
  <path d="M 402.5 1497  L 402.5 1475  A 5 5 0 0 1 407 1470.5 L 557 1470.5  A 3 3 0 0 1 560 1467.5 A 3 3 0 0 1 563 1470.5 L 567 1470.5  A 3 3 0 0 1 570 1467.5 A 3 3 0 0 1 573 1470.5 L 574 1470.5  A 3 3 0 0 1 577 1467.5 A 3 3 0 0 1 580 1470.5 L 595 1470.5  A 5 5 0 0 1 600.5 1475.5 L 600.5 4849  A 5 5 0 0 1 595.5 4854.5 L 590 4854.5  " stroke-width="1" stroke="#ff0000" fill="none" stroke-opacity="0.298039215686275" />
  <path d="M 591 4860  L 591 4849  L 590 4849  L 590 4860  L 591 4860  Z " fill-rule="nonzero" fill="#ff0000" stroke="none" fill-opacity="0.298039215686275" />
</svg>