<?xml version="1.0" encoding="utf-8"?>
<svg version="1.1" xmlns:xlink="http://www.w3.org/1999/xlink" width="10px" height="4907px" preserveAspectRatio="xMidYMin meet" viewBox="46 2425  8 4907" xmlns="http://www.w3.org/2000/svg">
  <path d="M 402.5 2454  L 402.5 2435  A 5 5 0 0 0 397 2430.5 L 83 2430.5  A 3 3 0 0 0 80 2427.5 A 3 3 0 0 0 77 2430.5 L 73 2430.5  A 3 3 0 0 0 70 2427.5 A 3 3 0 0 0 67 2430.5 L 55 2430.5  A 5 5 0 0 0 50.5 2435.5 L 50.5 7322  A 5 5 0 0 0 55.5 7327.5 L 68 7327.5  " stroke-width="1" stroke="#ff0000" fill="none" stroke-opacity="0.298039215686275" />
  <path d="M 67 7322  L 67 7333  L 68 7333  L 68 7322  L 67 7322  Z " fill-rule="nonzero" fill="#ff0000" stroke="none" fill-opacity="0.298039215686275" />
</svg>