<?xml version="1.0" encoding="utf-8"?>
<svg version="1.1" xmlns:xlink="http://www.w3.org/1999/xlink" width="10px" height="4267px" preserveAspectRatio="xMidYMin meet" viewBox="566 1765  8 4267" xmlns="http://www.w3.org/2000/svg">
  <path d="M 402.5 1794  L 402.5 1775  A 5 5 0 0 1 407 1770.5 L 557 1770.5  A 3 3 0 0 1 560 1767.5 A 3 3 0 0 1 563 1770.5 L 565 1770.5  A 5 5 0 0 1 570.5 1775 L 570.5 3794  A 3 3 0 0 1 573.5 3797 A 3 3 0 0 1 570.5 3800 L 570.5 6022  A 5 5 0 0 0 575.5 6027.5 L 588 6027.5  " stroke-width="1" stroke="#ff0000" fill="none" stroke-opacity="0.298039215686275" />
  <path d="M 587 6022  L 587 6033  L 588 6033  L 588 6022  L 587 6022  Z " fill-rule="nonzero" fill="#ff0000" stroke="none" fill-opacity="0.298039215686275" />
</svg>