<?xml version="1.0" encoding="utf-8"?>
<svg version="1.1" xmlns:xlink="http://www.w3.org/1999/xlink" width="10px" height="5px" preserveAspectRatio="xMinYMid meet" viewBox="19 4583  10 3" xmlns="http://www.w3.org/2000/svg">
  <path d="M 402.5 1347  L 402.5 1325  A 5 5 0 0 0 397 1320.5 L 73 1320.5  A 3 3 0 0 0 70 1317.5 A 3 3 0 0 0 67 1320.5 L 43 1320.5  A 3 3 0 0 0 40 1317.5 A 3 3 0 0 0 37 1320.5 L 19 1320.5  A 3 3 0 0 0 16 1317.5 A 3 3 0 0 0 13 1320.5 A 3 3 0 0 0 10.5 1323.5 L 10.5 4577  A 5 5 0 0 0 15.5 4582.5 L 24 4582.5  " stroke-width="1" stroke="#ff0000" fill="none" stroke-opacity="0.298039215686275" />
  <path d="M 23 4577  L 23 4588  L 24 4588  L 24 4577  L 23 4577  Z " fill-rule="nonzero" fill="#ff0000" stroke="none" fill-opacity="0.298039215686275" />
</svg>