<?xml version="1.0" encoding="utf-8"?>
<svg version="1.1" xmlns:xlink="http://www.w3.org/1999/xlink" width="10px" height="27px" preserveAspectRatio="xMidYMin meet" viewBox="398 2075  8 27" xmlns="http://www.w3.org/2000/svg">
  <path d="M 402.5 2102  L 402.5 2085  A 5 5 0 0 1 407 2080.5 L 557 2080.5  A 3 3 0 0 1 560 2077.5 A 3 3 0 0 1 563 2080.5 L 567 2080.5  A 3 3 0 0 1 570 2077.5 A 3 3 0 0 1 573 2080.5 L 575 2080.5  A 5 5 0 0 1 580.5 2085 L 580.5 2995  A 3 3 0 0 1 583.5 2998 A 3 3 0 0 1 580.5 3001 L 580.5 4180  A 3 3 0 0 1 583.5 4183 A 3 3 0 0 1 580.5 4186 L 580.5 5634  A 3 3 0 0 1 583.5 5637 A 3 3 0 0 1 580.5 5640 L 580.5 6024  A 3 3 0 0 1 583.5 6027 A 3 3 0 0 1 580.5 6030 L 580.5 6367  A 5 5 0 0 0 585.5 6372.5 L 597 6372.5  " stroke-width="1" stroke="#ff0000" fill="none" stroke-opacity="0.298039215686275" />
  <path d="M 596 6367  L 596 6378  L 597 6378  L 597 6367  L 596 6367  Z " fill-rule="nonzero" fill="#ff0000" stroke="none" fill-opacity="0.298039215686275" />
</svg>