<?xml version="1.0" encoding="utf-8"?>
<svg version="1.1" xmlns:xlink="http://www.w3.org/1999/xlink" width="24px" height="24px" xmlns="http://www.w3.org/2000/svg">
  <defs>
    <mask fill="white" id="clip22">
      <path d="M 9 18  C 3.95999999999998 18  0 14.04  0 9  C 0 4.70264479518232  2.87896654365238 1.19046228408797  6.85162663516189 0.248725462512311  C 7.53815944415118 0.0859797932246238  8.25735520481771 0  9 0  C 14.04 0  18 3.96000000000004  18 9  C 18 14.04  14.04 18  9 18  Z " fill-rule="evenodd" />
    </mask>
    <filter x="391px" y="2038px" width="24px" height="24px" filterUnits="userSpaceOnUse" id="filter23">
      <feOffset dx="0" dy="0" in="SourceAlpha" result="shadowOffsetInner" />
      <feGaussianBlur stdDeviation="1.5" in="shadowOffsetInner" result="shadowGaussian" />
      <feComposite in2="shadowGaussian" operator="atop" in="SourceAlpha" result="shadowComposite" />
      <feColorMatrix type="matrix" values="0 0 0 0 0.0823529411764706  0 0 0 0 0.83921568627451  0 0 0 0 0.729411764705882  0 0 0 0.349019607843137 0  " in="shadowComposite" />
    </filter>
    <g id="widget24">
      <path d="M 9 18  C 3.95999999999998 18  0 14.04  0 9  C 0 4.70264479518232  2.87896654365238 1.19046228408797  6.85162663516189 0.248725462512311  C 7.53815944415118 0.0859797932246238  8.25735520481771 0  9 0  C 14.04 0  18 3.96000000000004  18 9  C 18 14.04  14.04 18  9 18  Z " fill-rule="nonzero" fill="#ec808d" stroke="none" transform="matrix(1 0 0 1 394 2041 )" />
      <path d="M 9 18  C 3.95999999999998 18  0 14.04  0 9  C 0 4.70264479518232  2.87896654365238 1.19046228408797  6.85162663516189 0.248725462512311  C 7.53815944415118 0.0859797932246238  8.25735520481771 0  9 0  C 14.04 0  18 3.96000000000004  18 9  C 18 14.04  14.04 18  9 18  Z " stroke-width="2" stroke="#ec808d" fill="none" transform="matrix(1 0 0 1 394 2041 )" mask="url(#clip22)" />
    </g>
  </defs>
  <g transform="matrix(1 0 0 1 -391 -2038 )">
    <use xlink:href="#widget24" filter="url(#filter23)" />
    <use xlink:href="#widget24" />
  </g>
</svg>