<?xml version="1.0" encoding="utf-8"?>
<svg version="1.1" xmlns:xlink="http://www.w3.org/1999/xlink" width="208px" height="10px" preserveAspectRatio="xMinYMid meet" viewBox="397 1366  208 8" xmlns="http://www.w3.org/2000/svg">
  <path d="M 402.5 1395  L 402.5 1375  A 5 5 0 0 1 407 1370.5 L 557 1370.5  A 3 3 0 0 1 560 1367.5 A 3 3 0 0 1 563 1370.5 L 567 1370.5  A 3 3 0 0 1 570 1367.5 A 3 3 0 0 1 573 1370.5 L 574 1370.5  A 3 3 0 0 1 577 1367.5 A 3 3 0 0 1 580 1370.5 L 595 1370.5  A 5 5 0 0 1 600.5 1375.5 L 600.5 4512  A 5 5 0 0 1 595.5 4517.5 L 590 4517.5  " stroke-width="1" stroke="#ff0000" fill="none" stroke-opacity="0.298039215686275" />
  <path d="M 591 4523  L 591 4512  L 590 4512  L 590 4523  L 591 4523  Z " fill-rule="nonzero" fill="#ff0000" stroke="none" fill-opacity="0.298039215686275" />
</svg>