<?xml version="1.0" encoding="utf-8"?>
<svg version="1.1" xmlns:xlink="http://www.w3.org/1999/xlink" width="18px" height="18px" preserveAspectRatio="xMinYMid meet" viewBox="59 6018  18 16" xmlns="http://www.w3.org/2000/svg">
  <path d="M 402.5 1751  L 402.5 1735  A 5 5 0 0 0 397 1730.5 L 83 1730.5  A 3 3 0 0 0 80 1727.5 A 3 3 0 0 0 77 1730.5 L 73 1730.5  A 3 3 0 0 0 70 1727.5 A 3 3 0 0 0 67 1730.5 L 55 1730.5  A 5 5 0 0 0 50.5 1735.5 L 50.5 6022  A 5 5 0 0 0 55.5 6027.5 L 68 6027.5  " stroke-width="1" stroke="#ff0000" fill="none" stroke-opacity="0.298039215686275" />
  <path d="M 67 6022  L 67 6033  L 68 6033  L 68 6022  L 67 6022  Z " fill-rule="nonzero" fill="#ff0000" stroke="none" fill-opacity="0.298039215686275" />
</svg>