<?xml version="1.0" encoding="utf-8"?>
<svg version="1.1" xmlns:xlink="http://www.w3.org/1999/xlink" width="10px" height="6497px" preserveAspectRatio="xMidYMin meet" viewBox="46 1825  8 6497" xmlns="http://www.w3.org/2000/svg">
  <path d="M 402.5 1849  L 402.5 1835  A 5 5 0 0 0 397 1830.5 L 83 1830.5  A 3 3 0 0 0 80 1827.5 A 3 3 0 0 0 77 1830.5 L 73 1830.5  A 3 3 0 0 0 70 1827.5 A 3 3 0 0 0 67 1830.5 L 55 1830.5  A 5 5 0 0 0 50.5 1835.5 L 50.5 8312  A 5 5 0 0 0 55.5 8317.5 L 68 8317.5  " stroke-width="1" stroke="#ff0000" fill="none" stroke-opacity="0.298039215686275" />
  <path d="M 67 8312  L 67 8323  L 68 8323  L 68 8312  L 67 8312  Z " fill-rule="nonzero" fill="#ff0000" stroke="none" fill-opacity="0.298039215686275" />
</svg>