<?xml version="1.0" encoding="utf-8"?>
<svg version="1.1" xmlns:xlink="http://www.w3.org/1999/xlink" width="21px" height="10px" preserveAspectRatio="xMinYMid meet" viewBox="5 6625  21 8" xmlns="http://www.w3.org/2000/svg">
  <path d="M 402.5 2226  L 402.5 2205  A 5 5 0 0 0 397 2200.5 L 43 2200.5  A 3 3 0 0 0 40 2197.5 A 3 3 0 0 0 37 2200.5 L 15 2200.5  A 5 5 0 0 0 10.5 2205 L 10.5 4340  A 3 3 0 0 1 13.5 4343 A 3 3 0 0 1 10.5 4346 L 10.5 6624  A 5 5 0 0 0 15.5 6629.5 L 21 6629.5  " stroke-width="1" stroke="#ff0000" fill="none" stroke-opacity="0.298039215686275" />
  <path d="M 20 6624  L 20 6635  L 21 6635  L 21 6624  L 20 6624  Z " fill-rule="nonzero" fill="#ff0000" stroke="none" fill-opacity="0.298039215686275" />
</svg>