<?xml version="1.0" encoding="utf-8"?>
<svg version="1.1" xmlns:xlink="http://www.w3.org/1999/xlink" width="10px" height="3747px" preserveAspectRatio="xMidYMin meet" viewBox="6 1695  8 3747" xmlns="http://www.w3.org/2000/svg">
  <path d="M 402.5 1718  L 402.5 1705  A 5 5 0 0 0 397 1700.5 L 43 1700.5  A 3 3 0 0 0 40 1697.5 A 3 3 0 0 0 37 1700.5 L 15 1700.5  A 5 5 0 0 0 10.5 1705 L 10.5 4340  A 3 3 0 0 1 13.5 4343 A 3 3 0 0 1 10.5 4346 L 10.5 5432  A 5 5 0 0 0 15.5 5437.5 L 21 5437.5  " stroke-width="1" stroke="#ff0000" fill="none" stroke-opacity="0.298039215686275" />
  <path d="M 20 5432  L 20 5443  L 21 5443  L 21 5432  L 20 5432  Z " fill-rule="nonzero" fill="#ff0000" stroke="none" fill-opacity="0.298039215686275" />
</svg>