<?xml version="1.0" encoding="utf-8"?>
<svg version="1.1" xmlns:xlink="http://www.w3.org/1999/xlink" width="18px" height="18px" preserveAspectRatio="xMinYMid meet" viewBox="532 5199  18 16" xmlns="http://www.w3.org/2000/svg">
  <path d="M 402.5 1665  L 402.5 1645  A 5 5 0 0 1 407 1640.5 L 517 1640.5  A 3 3 0 0 1 520 1637.5 A 3 3 0 0 1 523 1640.5 L 525 1640.5  A 5 5 0 0 1 530.5 1645 L 530.5 2619  A 3 3 0 0 1 533.5 2622 A 3 3 0 0 1 530.5 2625 L 530.5 3034  A 3 3 0 0 1 533.5 3037 A 3 3 0 0 1 530.5 3040 L 530.5 3798  A 3 3 0 0 1 533.5 3801 A 3 3 0 0 1 530.5 3804 L 530.5 4079  A 3 3 0 0 1 533.5 4082 A 3 3 0 0 1 530.5 4085 L 530.5 5203  A 5 5 0 0 0 535.5 5208.5 L 541 5208.5  " stroke-width="1" stroke="#ff0000" fill="none" stroke-opacity="0.298039215686275" />
  <path d="M 540 5203  L 540 5214  L 541 5214  L 541 5203  L 540 5203  Z " fill-rule="nonzero" fill="#ff0000" stroke="none" fill-opacity="0.298039215686275" />
</svg>