<?xml version="1.0" encoding="utf-8"?>
<svg version="1.1" xmlns:xlink="http://www.w3.org/1999/xlink" width="37px" height="10px" preserveAspectRatio="xMinYMid meet" viewBox="655 2056  37 8" xmlns="http://www.w3.org/2000/svg">
  <path d="M 402.5 2072  L 402.5 2055  A 5 5 0 0 1 407 2050.5 L 507 2050.5  A 3 3 0 0 1 510 2047.5 A 3 3 0 0 1 513 2050.5 L 517 2050.5  A 3 3 0 0 1 520 2047.5 A 3 3 0 0 1 523 2050.5 L 527 2050.5  A 3 3 0 0 1 530 2047.5 A 3 3 0 0 1 533 2050.5 L 538 2050.5  A 3 3 0 0 1 541 2047.5 A 3 3 0 0 1 544 2050.5 L 655 2050.5  A 5 5 0 0 1 660.5 2055.5 A 5 5 0 0 0 665.5 2060.5 L 682 2060.5  A 5 5 0 0 0 687.5 2055.5 L 687.5 2025  " stroke-width="1" stroke="#ff0000" fill="none" stroke-opacity="0.298039215686275" />
  <path d="M 682 2026  L 693 2026  L 693 2025  L 682 2025  L 682 2026  Z " fill-rule="nonzero" fill="#ff0000" stroke="none" fill-opacity="0.298039215686275" />
</svg>