<?xml version="1.0" encoding="utf-8"?>
<svg version="1.1" xmlns:xlink="http://www.w3.org/1999/xlink" width="10px" height="4163px" preserveAspectRatio="xMidYMin meet" viewBox="6 2095  8 4163" xmlns="http://www.w3.org/2000/svg">
  <path d="M 402.5 2126  L 402.5 2105  A 5 5 0 0 0 397 2100.5 L 43 2100.5  A 3 3 0 0 0 40 2097.5 A 3 3 0 0 0 37 2100.5 L 24 2100.5  A 3 3 0 0 0 21 2097.5 A 3 3 0 0 0 18 2100.5 L 15 2100.5  A 5 5 0 0 0 10.5 2105.5 L 10.5 6248  A 5 5 0 0 0 15.5 6253.5 L 21 6253.5  " stroke-width="1" stroke="#ff0000" fill="none" stroke-opacity="0.298039215686275" />
  <path d="M 20 6248  L 20 6259  L 21 6259  L 21 6248  L 20 6248  Z " fill-rule="nonzero" fill="#ff0000" stroke="none" fill-opacity="0.298039215686275" />
</svg>