<?xml version="1.0" encoding="utf-8"?>
<svg version="1.1" xmlns:xlink="http://www.w3.org/1999/xlink" width="149px" height="10px" preserveAspectRatio="xMinYMid meet" viewBox="397 1736  149 8" xmlns="http://www.w3.org/2000/svg">
  <path d="M 402.5 1766  L 402.5 1745  A 5 5 0 0 1 407 1740.5 L 517 1740.5  A 3 3 0 0 1 520 1737.5 A 3 3 0 0 1 523 1740.5 L 527 1740.5  A 3 3 0 0 1 530 1737.5 A 3 3 0 0 1 533 1740.5 L 536 1740.5  A 5 5 0 0 1 541.5 1745 L 541.5 4369  A 3 3 0 0 1 544.5 4372 A 3 3 0 0 1 541.5 4375 L 541.5 5460  " stroke-width="1" stroke="#ff0000" fill="none" stroke-opacity="0.298039215686275" />
  <path d="M 547 5459  L 536 5459  L 536 5460  L 547 5460  L 547 5459  Z " fill-rule="nonzero" fill="#ff0000" stroke="none" fill-opacity="0.298039215686275" />
</svg>