<?xml version="1.0" encoding="utf-8"?>
<svg version="1.1" xmlns:xlink="http://www.w3.org/1999/xlink" width="18px" height="18px" preserveAspectRatio="xMinYMid meet" viewBox="520 3467  18 16" xmlns="http://www.w3.org/2000/svg">
  <path d="M 402.5 1002  L 402.5 985  A 5 5 0 0 1 407.5 980.5 L 505 980.5  A 5 5 0 0 1 510.5 985 L 510.5 1077  A 3 3 0 0 1 513.5 1080 A 3 3 0 0 1 510.5 1083 L 510.5 1177  A 3 3 0 0 1 513.5 1180 A 3 3 0 0 1 510.5 1183 L 510.5 1309  A 3 3 0 0 1 513.5 1312 A 3 3 0 0 1 510.5 1315 L 510.5 1447  A 3 3 0 0 1 513.5 1450 A 3 3 0 0 1 510.5 1453 L 510.5 1537  A 3 3 0 0 1 513.5 1540 A 3 3 0 0 1 510.5 1543 L 510.5 1637  A 3 3 0 0 1 513.5 1640 A 3 3 0 0 1 510.5 1643 L 510.5 1737  A 3 3 0 0 1 513.5 1740 A 3 3 0 0 1 510.5 1743 L 510.5 1837  A 3 3 0 0 1 513.5 1840 A 3 3 0 0 1 510.5 1843 L 510.5 3471  A 5 5 0 0 0 515 3476.5 L 517 3476.5  A 3 3 0 0 1 520 3473.5 A 3 3 0 0 1 523 3476.5 L 529 3476.5  " stroke-width="1" stroke="#ff0000" fill="none" stroke-opacity="0.298039215686275" />
  <path d="M 528 3471  L 528 3482  L 529 3482  L 529 3471  L 528 3471  Z " fill-rule="nonzero" fill="#ff0000" stroke="none" fill-opacity="0.298039215686275" />
</svg>