<?xml version="1.0" encoding="utf-8"?>
<svg version="1.1" xmlns:xlink="http://www.w3.org/1999/xlink" width="10px" height="5px" preserveAspectRatio="xMinYMid meet" viewBox="16 7328  10 3" xmlns="http://www.w3.org/2000/svg">
  <path d="M 402.5 2537  L 402.5 2515  A 5 5 0 0 0 397 2510.5 L 43 2510.5  A 3 3 0 0 0 40 2507.5 A 3 3 0 0 0 37 2510.5 L 15 2510.5  A 5 5 0 0 0 10.5 2515 L 10.5 4340  A 3 3 0 0 1 13.5 4343 A 3 3 0 0 1 10.5 4346 L 10.5 7322  A 5 5 0 0 0 15.5 7327.5 L 21 7327.5  " stroke-width="1" stroke="#ff0000" fill="none" stroke-opacity="0.298039215686275" />
  <path d="M 20 7322  L 20 7333  L 21 7333  L 21 7322  L 20 7322  Z " fill-rule="nonzero" fill="#ff0000" stroke="none" fill-opacity="0.298039215686275" />
</svg>