<?xml version="1.0" encoding="utf-8"?>
<svg version="1.1" xmlns:xlink="http://www.w3.org/1999/xlink" width="10px" height="3902px" preserveAspectRatio="xMidYMin meet" viewBox="6 1785  8 3902" xmlns="http://www.w3.org/2000/svg">
  <path d="M 402.5 1817  L 402.5 1795  A 5 5 0 0 0 397 1790.5 L 43 1790.5  A 3 3 0 0 0 40 1787.5 A 3 3 0 0 0 37 1790.5 L 15 1790.5  A 5 5 0 0 0 10.5 1795 L 10.5 4340  A 3 3 0 0 1 13.5 4343 A 3 3 0 0 1 10.5 4346 L 10.5 5677  A 5 5 0 0 0 15.5 5682.5 L 21 5682.5  " stroke-width="1" stroke="#ff0000" fill="none" stroke-opacity="0.298039215686275" />
  <path d="M 20 5677  L 20 5688  L 21 5688  L 21 5677  L 20 5677  Z " fill-rule="nonzero" fill="#ff0000" stroke="none" fill-opacity="0.298039215686275" />
</svg>