<?xml version="1.0" encoding="utf-8"?>
<svg version="1.1" xmlns:xlink="http://www.w3.org/1999/xlink" width="18px" height="18px" preserveAspectRatio="xMinYMid meet" viewBox="12 4747  18 16" xmlns="http://www.w3.org/2000/svg">
  <path d="M 402.5 1515  L 402.5 1495  A 5 5 0 0 0 397.5 1490.5 L 45 1490.5  A 5 5 0 0 0 40.5 1495 L 40.5 1587  A 3 3 0 0 1 43.5 1590 A 3 3 0 0 1 40.5 1593 L 40.5 1697  A 3 3 0 0 1 43.5 1700 A 3 3 0 0 1 40.5 1703 L 40.5 4751  A 5 5 0 0 1 35.5 4756.5 L 21 4756.5  " stroke-width="1" stroke="#ff0000" fill="none" stroke-opacity="0.298039215686275" />
  <path d="M 22 4762  L 22 4751  L 21 4751  L 21 4762  L 22 4762  Z " fill-rule="nonzero" fill="#ff0000" stroke="none" fill-opacity="0.298039215686275" />
</svg>