<?xml version="1.0" encoding="utf-8"?>
<svg version="1.1" xmlns:xlink="http://www.w3.org/1999/xlink" width="10px" height="5px" preserveAspectRatio="xMinYMid meet" viewBox="536 5683  10 3" xmlns="http://www.w3.org/2000/svg">
  <path d="M 402.5 1863  L 402.5 1845  A 5 5 0 0 1 407 1840.5 L 517 1840.5  A 3 3 0 0 1 520 1837.5 A 3 3 0 0 1 523 1840.5 L 525 1840.5  A 5 5 0 0 1 530.5 1845 L 530.5 2555  A 3 3 0 0 1 533.5 2558 A 3 3 0 0 1 530.5 2561 L 530.5 2974  A 3 3 0 0 1 533.5 2977 A 3 3 0 0 1 530.5 2980 L 530.5 3776  A 3 3 0 0 1 533.5 3779 A 3 3 0 0 1 530.5 3782 L 530.5 4079  A 3 3 0 0 1 533.5 4082 A 3 3 0 0 1 530.5 4085 L 530.5 4340  A 3 3 0 0 1 533.5 4343 A 3 3 0 0 1 530.5 4346 L 530.5 5677  A 5 5 0 0 0 535.5 5682.5 L 541 5682.5  " stroke-width="1" stroke="#ff0000" fill="none" stroke-opacity="0.298039215686275" />
  <path d="M 540 5677  L 540 5688  L 541 5688  L 541 5677  L 540 5677  Z " fill-rule="nonzero" fill="#ff0000" stroke="none" fill-opacity="0.298039215686275" />
</svg>