<?xml version="1.0" encoding="utf-8"?>
<svg version="1.1" xmlns:xlink="http://www.w3.org/1999/xlink" width="21px" height="10px" preserveAspectRatio="xMinYMid meet" viewBox="5 5969  21 8" xmlns="http://www.w3.org/2000/svg">
  <path d="M 402.5 1913  L 402.5 1895  A 5 5 0 0 0 397 1890.5 L 43 1890.5  A 3 3 0 0 0 40 1887.5 A 3 3 0 0 0 37 1890.5 L 15 1890.5  A 5 5 0 0 0 10.5 1895 L 10.5 4340  A 3 3 0 0 1 13.5 4343 A 3 3 0 0 1 10.5 4346 L 10.5 5968  A 5 5 0 0 0 15.5 5973.5 L 21 5973.5  " stroke-width="1" stroke="#ff0000" fill="none" stroke-opacity="0.298039215686275" />
  <path d="M 20 5968  L 20 5979  L 21 5979  L 21 5968  L 20 5968  Z " fill-rule="nonzero" fill="#ff0000" stroke="none" fill-opacity="0.298039215686275" />
</svg>