<?xml version="1.0" encoding="utf-8"?>
<svg version="1.1" xmlns:xlink="http://www.w3.org/1999/xlink" width="21px" height="10px" preserveAspectRatio="xMinYMid meet" viewBox="525 5172  21 8" xmlns="http://www.w3.org/2000/svg">
  <path d="M 402.5 1665  L 402.5 1645  A 5 5 0 0 1 407 1640.5 L 517 1640.5  A 3 3 0 0 1 520 1637.5 A 3 3 0 0 1 523 1640.5 L 525 1640.5  A 5 5 0 0 1 530.5 1645 L 530.5 2555  A 3 3 0 0 1 533.5 2558 A 3 3 0 0 1 530.5 2561 L 530.5 2974  A 3 3 0 0 1 533.5 2977 A 3 3 0 0 1 530.5 2980 L 530.5 3776  A 3 3 0 0 1 533.5 3779 A 3 3 0 0 1 530.5 3782 L 530.5 4079  A 3 3 0 0 1 533.5 4082 A 3 3 0 0 1 530.5 4085 L 530.5 4340  A 3 3 0 0 1 533.5 4343 A 3 3 0 0 1 530.5 4346 L 530.5 5171  A 5 5 0 0 0 535.5 5176.5 L 541 5176.5  " stroke-width="1" stroke="#ff0000" fill="none" stroke-opacity="0.298039215686275" />
  <path d="M 540 5171  L 540 5182  L 541 5182  L 541 5171  L 540 5171  Z " fill-rule="nonzero" fill="#ff0000" stroke="none" fill-opacity="0.298039215686275" />
</svg>